<?xml version="1.0" encoding="UTF-8" standalone="no"?>
<!-- Created with Inkscape (http://www.inkscape.org/) -->

<svg
   xmlns:dc="http://purl.org/dc/elements/1.1/"
   xmlns:cc="http://creativecommons.org/ns#"
   xmlns:rdf="http://www.w3.org/1999/02/22-rdf-syntax-ns#"
   xmlns:svg="http://www.w3.org/2000/svg"
   xmlns="http://www.w3.org/2000/svg"
   xmlns:sodipodi="http://sodipodi.sourceforge.net/DTD/sodipodi-0.dtd"
   xmlns:inkscape="http://www.inkscape.org/namespaces/inkscape"
   width="203.72916mm"
   height="34.131248mm"
   viewBox="0 0 203.72916 34.131248"
   version="1.1"
   id="svg8"
   inkscape:version="0.92.5 (2060ec1f9f, 2020-04-08)"
   sodipodi:docname="streamlabs logo.svg">
  <defs
     id="defs2">
    <path
       d="m 70.1,264.3 v 24.9 h 19.6 l 4.7,20 H 70.1 v 3 h 12.8 l -4.2,11.2 1.2,12.5 h -9.8 v 43.6 L 120,350.7 V 293.1 Z M 83,323.5 v 0 l 11.5,-7.5 13.1,9.9 -17.8,31.1 h -7.1 l -8.5,-7.8 v -4 l 8.8,-8.4 z"
       id="SVGID_1_"
       inkscape:connector-curvature="0" />
    <path
       d="m 70.1,264.3 -49.9,28.8 v 57.6 l 49.9,28.8 V 336 h -9.7 l 1.3,-12.5 -4.3,-11.2 h 12.7 v -3 H 45.9 l 4.6,-20 h 19.7 v -25 z m -37.5,61.6 v 0 l 13.2,-9.8 11.6,7.4 v 13.3 l 8.8,8.4 v 4 l -8.5,7.9 h -7.2 z"
       id="SVGID_3_"
       inkscape:connector-curvature="0" />
  </defs>
  <sodipodi:namedview
     id="base"
     pagecolor="#ffffff"
     bordercolor="#666666"
     borderopacity="1.0"
     inkscape:pageopacity="0.0"
     inkscape:pageshadow="2"
     inkscape:zoom="1.1894531"
     inkscape:cx="325.23764"
     inkscape:cy="-19.966598"
     inkscape:document-units="mm"
     inkscape:current-layer="layer1"
     showgrid="false"
     fit-margin-top="0"
     fit-margin-left="0"
     fit-margin-right="0"
     fit-margin-bottom="0"
     inkscape:window-width="1920"
     inkscape:window-height="1017"
     inkscape:window-x="1912"
     inkscape:window-y="70"
     inkscape:window-maximized="1" />
  <metadata
     id="metadata5">
    <rdf:RDF>
      <cc:Work
         rdf:about="">
        <dc:format>image/svg+xml</dc:format>
        <dc:type
           rdf:resource="http://purl.org/dc/dcmitype/StillImage" />
        <dc:title></dc:title>
      </cc:Work>
    </rdf:RDF>
  </metadata>
  <g
     inkscape:label="Layer 1"
     inkscape:groupmode="layer"
     id="layer1"
     transform="translate(19.257549,-109.41926)">
    <g
       style="fill:none"
       id="g949"
       transform="matrix(0.27000881,0,0,0.26834431,-19.257322,109.41926)">
      <path
         id="path905"
         d="m 31.1916,75.9924 c 0,-15.6814 0,-23.5222 3.0518,-29.5117 2.6845,-5.2685 6.9679,-9.552 12.2365,-12.2364 5.9895,-3.0519 13.8302,-3.0519 29.5117,-3.0519 h 22.4 c 15.6814,0 23.5224,0 29.5114,3.0519 5.269,2.6844 9.552,6.9679 12.237,12.2364 3.052,5.9895 3.052,13.8303 3.052,29.5117 v 6.4 c 0,15.6815 0,23.5226 -3.052,29.5116 -2.685,5.269 -6.968,9.552 -12.237,12.237 -5.989,3.051 -13.83,3.051 -29.5114,3.051 h -41.6 c -8.9608,0 -13.4413,0 -16.8638,-1.743 -3.0106,-1.534 -5.4583,-3.982 -6.9923,-6.993 -1.7439,-3.422 -1.7439,-7.903 -1.7439,-16.864 z m 40,3.2 c 0,-4.4182 3.5817,-8 8,-8 4.4183,0 8,3.5818 8,8 v 16 c 0,4.4183 -3.5817,7.9996 -8,7.9996 -4.4183,0 -8,-3.5813 -8,-7.9996 z m 40.0004,-8 c -4.419,0 -8,3.5818 -8,8 v 16 c 0,4.4183 3.581,7.9996 8,7.9996 4.418,0 8,-3.5813 8,-7.9996 v -16 c 0,-4.4182 -3.582,-8 -8,-8 z"
         inkscape:connector-curvature="0"
         style="clip-rule:evenodd;fill:#09161d;fill-rule:evenodd" />
      <path
         id="path907"
         d="m 59.1305,7.01358 c 0.5452,4.38452 -2.5671,8.38082 -6.9516,8.92612 -2.4169,0.3005 -4.3587,0.7094 -6.0774,1.245 -13.8053,4.3019 -24.6157,15.1123 -28.9176,28.9176 -0.5356,1.7188 -0.9445,3.6605 -1.2451,6.0774 -0.5452,4.3845 -4.5416,7.4968 -8.92606,6.9516 C 2.62823,58.586 -0.4841,54.5897 0.0611478,50.2052 0.452741,47.0563 1.0323,44.1536 1.90836,41.3423 7.77459,22.5169 22.516,7.77543 41.3414,1.90919 c 2.8114,-0.87605 5.714,-1.45561 8.8629,-1.847203 4.3846,-0.545248 8.3809,2.567083 8.9262,6.951593 z"
         inkscape:connector-curvature="0"
         style="clip-rule:evenodd;fill:#09161d;fill-rule:evenodd" />
      <path
         id="path909"
         d="m 217.432,52.3608 c -11.536,0 -21.952,7.168 -21.952,17.92 0,10.08 9.296,13.44 18.48,14.784 6.048,0.896 8.288,1.344 8.288,3.584 0,2.016 -1.792,3.024 -4.592,3.024 -7.056,0 -9.632,-2.576 -15.456,-2.576 -5.04,0 -6.944,3.696 -6.944,8.4 0,5.0402 9.072,8.6242 20.496,8.6242 15.12,0 23.072,-6.8322 23.072,-17.9202 0,-10.304 -7.728,-14.336 -19.712,-16.016 -3.92,-0.56 -7.168,-0.5599 -7.168,-2.9119 0,-2.1281 2.688,-3.1361 6.048,-3.1361 3.808,0 8.512,2.24 12.208,2.24 4.816,0 6.832,-3.136 6.832,-7.728 0,-3.136 -2.016,-4.928 -4.368,-5.936 -4.144,-1.792 -8.848,-2.352 -15.232,-2.352 z"
         inkscape:connector-curvature="0"
         style="fill:#09161d" />
      <path
         id="path911"
         d="m 248.254,68.8248 h 3.808 c 0.112,5.264 -0.112,10.752 -0.112,16.016 0,14.784 7.84,20.8322 18.144,20.8322 5.824,0 8.176,-0.448 10.752,-2.24 2.016,-1.344 3.024,-3.248 3.024,-7.5042 0,-3.584 -2.352,-7.168 -6.384,-7.168 -1.68,0 -2.128,0.56 -4.368,0.56 -2.912,0 -3.696,-3.36 -3.696,-6.0479 V 68.7128 h 7.728 c 4.032,0 6.048,-3.584 6.048,-7.728 0,-5.152 -2.688,-7.728 -7.28,-7.616 h -6.384 c 0.112,-3.808 0.224,-6.384 0.224,-8.512 0,-4.256 -2.8,-6.944 -7.392,-6.944 -6.384,0 -9.744,3.36 -9.968,9.632 l -0.224,5.936 h -3.472 c -4.144,0 -6.944,3.248 -6.944,7.504 0,4.704 1.792,7.84 6.496,7.84 z"
         inkscape:connector-curvature="0"
         style="fill:#09161d" />
      <path
         id="path913"
         d="m 291.881,60.9848 v 10.08 c 0,7.616 -0.224,17.472 -0.224,26.0961 0,6.6081 3.92,8.4001 8.96,8.4001 5.04,0 9.184,-2.016 9.296,-7.2802 0.224,-4.256 -0.224,-10.304 -0.224,-14.448 0,-10.864 4.368,-14.224 10.304,-14.224 h 1.456 c 4.816,0 7.056,-4.592 7.056,-8.848 0,-5.824 -2.688,-8.4 -7.728,-8.4 -4.928,0 -10.416,3.36 -12.432,7.952 l -0.784,-2.8 c -0.896,-3.136 -3.248,-4.704 -6.72,-4.704 -5.6,0 -8.96,2.8 -8.96,8.176 z"
         inkscape:connector-curvature="0"
         style="fill:#09161d" />
      <path
         id="path915"
         d="m 349.889,83.8328 c 13.776,-0.112 21.056,-0.336 23.296,-0.336 7.504,-0.112 9.072,-3.136 9.072,-9.856 0,-10.752 -9.632,-21.28 -23.968,-21.28 -15.12,0 -26.992,11.648 -26.992,28.112 0,14.224 11.76,25.5362 26.544,25.5362 9.072,0 14.112,-1.568 18.032,-3.92 2.688,-1.568 4.144,-4.0322 4.144,-6.7202 0,-4.592 -3.248,-8.6239 -7.28,-8.6239 -2.016,0 -3.808,0.5599 -5.712,1.5679 -1.792,1.008 -4.928,2.016 -8.064,2.016 -3.696,0 -8.288,-2.1279 -9.072,-6.496 z m 8.176,-17.248 c 3.92,0 6.944,2.464 6.944,5.712 0,0.448 -0.672,0.56 -1.344,0.56 -4.48,0.112 -9.632,0.336 -13.888,0.336 0.336,-3.36 3.808,-6.608 8.288,-6.608 z"
         inkscape:connector-curvature="0"
         style="fill:#09161d" />
      <path
         id="path917"
         d="m 444.378,69.4968 0.112,-8.624 c 0,-5.152 -2.8,-7.952 -8.512,-7.952 -2.8,0 -5.264,0.784 -6.72,2.8 -0.56,0.784 -1.008,1.68 -1.344,2.912 -2.688,-3.808 -7.392,-5.936 -12.544,-5.936 -15.008,0 -26.544,10.528 -26.544,27.664 0,14.5601 9.632,25.4242 25.2,25.4242 5.936,0 10.752,-2.8 13.44,-7.1682 1.456,5.0402 3.92,6.8322 7.84,6.8322 5.152,0 9.408,-1.344 9.408,-7.6162 -0.224,-3.808 -0.336,-7.616 -0.336,-11.424 z m -36.96,10.416 c 0,-7.504 3.92,-11.648 9.632,-11.648 5.04,0 9.632,3.808 9.632,10.864 0,7.056 -4.704,11.312 -10.192,11.312 -5.264,0 -9.072,-4.5919 -9.072,-10.528 z"
         inkscape:connector-curvature="0"
         style="fill:#09161d" />
      <path
         id="path919"
         d="m 456.928,76.8888 -0.112,13.44 c -0.224,5.264 -0.112,5.712 -0.112,7.168 0,6.1602 4.592,7.9522 8.96,7.9522 5.04,0 9.52,-2.128 9.52,-7.1682 v -19.04 c -0.112,-5.6 1.12,-11.648 7.504,-11.648 4.256,0 6.272,4.704 6.272,8.6241 0.112,10.528 -0.224,13.6639 -0.224,21.9519 0,4.8162 3.584,7.1682 8.736,7.2802 4.928,0.112 9.184,-1.904 9.408,-6.8322 0.112,-3.584 0.112,-7.616 0.112,-10.752 0,-4.592 0,-8.288 0.112,-12.88 0,-4.032 3.248,-7.168 7.056,-7.168 4.592,0 5.712,4.0321 5.712,8.4001 0,9.0719 -0.336,15.5679 -0.336,22.0639 0,4.3682 3.584,7.1682 9.184,7.1682 3.36,0 8.848,-0.896 9.184,-6.6082 0.224,-4.48 0.224,-8.512 0.224,-12.432 l -0.112,-12.544 c 0,-12.992 -6.272,-21.728 -20.496,-21.504 -5.376,0.112 -11.76,3.472 -15.008,8.064 -2.8,-4.704 -7.616,-8.064 -15.008,-8.064 -5.376,0 -11.088,3.584 -13.104,7.28 l -0.448,-2.016 c -0.672,-2.912 -3.584,-5.264 -7.616,-5.264 -6.272,0 -9.52,2.8 -9.52,7.952 0,3.584 0.336,6.048 0.112,16.576 z"
         inkscape:connector-curvature="0"
         style="fill:#09161d" />
      <path
         id="path921"
         d="m 550.342,32.4248 c -0.224,18.48 -0.56,42.896 -0.112,60.816 0.112,10.0802 4.144,12.8802 10.416,12.2082 6.608,-0.672 8.512,-3.136 8.736,-8.5122 0.112,-3.696 -0.224,-7.952 -0.224,-12.656 0,-17.472 0,-34.496 0.336,-51.856 0.112,-5.6 -3.696,-8.288 -9.632,-8.288 -5.152,0 -9.408,2.576 -9.52,8.288 z"
         inkscape:connector-curvature="0"
         style="fill:#09161d" />
      <path
         id="path923"
         d="m 634.362,69.4968 0.112,-8.624 c 0,-5.152 -2.8,-7.952 -8.512,-7.952 -2.8,0 -5.264,0.784 -6.72,2.8 -0.56,0.784 -1.008,1.68 -1.344,2.912 -2.688,-3.808 -7.392,-5.936 -12.544,-5.936 -15.008,0 -26.544,10.528 -26.544,27.664 0,14.5601 9.632,25.4242 25.2,25.4242 5.936,0 10.752,-2.8 13.44,-7.1682 1.456,5.0402 3.92,6.8322 7.84,6.8322 5.152,0 9.408,-1.344 9.408,-7.6162 -0.224,-3.808 -0.336,-7.616 -0.336,-11.424 z m -36.96,10.416 c 0,-7.504 3.92,-11.648 9.632,-11.648 5.04,0 9.632,3.808 9.632,10.864 0,7.056 -4.704,11.312 -10.192,11.312 -5.264,0 -9.072,-4.5919 -9.072,-10.528 z"
         inkscape:connector-curvature="0"
         style="fill:#09161d" />
      <path
         id="path925"
         d="m 646.913,31.9768 0.224,45.024 -0.336,18.928 c -0.112,5.8242 2.016,9.1842 7.168,9.4082 4.592,0.224 7.728,-1.12 8.736,-5.3762 l 0.336,-1.456 c 2.576,4.4802 8.064,7.3922 13.776,7.3922 15.904,0 26.656,-12.2081 26.656,-27.4402 0,-14.448 -10.08,-26.096 -24.864,-26.096 -5.6,0 -10.864,1.68 -13.776,6.272 0,-0.112 0,-1.68 0.336,-27.328 0.112,-6.608 -4.592,-7.84 -9.52,-7.84 -4.928,0 -8.624,2.352 -8.736,8.512 z m 38.192,46.592 c 0,6.944 -5.152,11.984 -10.416,11.984 -5.04,0 -9.632,-4.48 -9.632,-11.088 0,-7.84 4.816,-11.312 10.528,-11.312 4.928,0 9.52,3.92 9.52,10.416 z"
         inkscape:connector-curvature="0"
         style="fill:#09161d" />
      <path
         id="path927"
         d="m 733.135,52.3608 c -11.536,0 -21.952,7.168 -21.952,17.92 0,10.08 9.296,13.44 18.48,14.784 6.048,0.896 8.288,1.344 8.288,3.584 0,2.016 -1.792,3.024 -4.592,3.024 -7.056,0 -9.632,-2.576 -15.456,-2.576 -5.04,0 -6.944,3.696 -6.944,8.4 0,5.0402 9.072,8.6242 20.496,8.6242 15.12,0 23.072,-6.8322 23.072,-17.9202 0,-10.304 -7.728,-14.336 -19.712,-16.016 -3.92,-0.56 -7.168,-0.5599 -7.168,-2.9119 0,-2.1281 2.688,-3.1361 6.048,-3.1361 3.808,0 8.512,2.24 12.208,2.24 4.816,0 6.832,-3.136 6.832,-7.728 0,-3.136 -2.016,-4.928 -4.368,-5.936 -4.144,-1.792 -8.848,-2.352 -15.232,-2.352 z"
         inkscape:connector-curvature="0"
         style="fill:#09161d" />
    </g>
  </g>
  <style
     id="style815"
     type="text/css">
	.st0{fill:#FFFFFF;}
	.st1{fill:#03316C;}
	.st2{fill:#002E73;}
</style>
</svg>
